<?xml version="1.0" encoding="iso-8859-1"?>
<!DOCTYPE svg PUBLIC "-//W3C//DTD SVG 1.1//EN" "http://www.w3.org/Graphics/SVG/1.1/DTD/svg11.dtd">
<svg  version="1.1" xmlns="http://www.w3.org/2000/svg" xmlns:xlink="http://www.w3.org/1999/xlink" x="0px" y="0px" width="512px"
	 height="512px" viewBox="0 0 512 512" enable-background="new 0 0 512 512" xml:space="preserve"><g id="5151e0c8492e5103c096af88a5245e5e"><path display="inline" d="M39.281,303.82c-1.483-2.979-2.281-6.027-2.281-9.125c0-35.07,98.044-63.504,219-63.504
		c120.949,0,219,28.434,219,63.504c0,3.098-0.806,6.146-2.288,9.125C457.448,273.074,366.256,249.441,256,249.441
		C145.737,249.441,54.544,273.074,39.281,303.82z M472.876,310.75H475c0,110.872-98.051,200.75-219,200.75
		c-120.956,0-219-89.878-219-200.75h2.117C53.832,341.675,145.295,365.5,256,365.5C366.697,365.5,458.161,341.675,472.876,310.75z
		 M439.919,356.36c-11.527,5.618-25.03,10.477-39.93,14.607c-16.332,52.861-55.655,96.854-107.489,122.282
		C365.75,476.689,423.251,423.494,439.919,356.36z M208.65,162.087c22.905,24.146,48.741,20.749,48.741,20.749
		s65.813,0.164,65.314-64.852c-0.229-29.382-19.697-43.65-38.518-66.384c-19.348-23.365-14.6-51.1-14.6-51.1
		s-40.92,24.78-61.302,58.133c-22.884,37.452-18.699,58.51-18.699,58.51S185.737,137.945,208.65,162.087z M165.491,318.421
		c-0.064-0.143-0.085-0.307-0.149-0.456h-0.57c-0.021,0.944-0.043,1.921,0,2.733c0.556,10.298,15.056,14.975,22.991,17.641
		c18.963,6.37,39.615,8.123,59.483,8.754c21.701,0.688,43.721-0.837,64.952-5.55c10.907-2.42,27.36-6.138,33.605-16.621
		c1.127-1.899,1.533-4.405,1.426-6.957h-0.884c0,0.003,0.007,0.011,0.007,0.014c-0.264,0.724-0.642,1.401-1.026,2.054
		c-1.104,1.86-2.873,3.308-4.548,4.619c-5.368,4.202-12.262,6.541-18.671,8.569c-19.376,6.138-40.3,7.784-60.503,8.244
		c-21.473,0.484-43.266-1.169-64.203-6.103C187.099,332.936,170.646,329.025,165.491,318.421z M331.431,298.274
		c0.058,0.121,0.079,0.257,0.121,0.382h0.478c0.021-0.788,0.036-1.604,0-2.281c-0.463-8.58-12.547-12.476-19.162-14.7
		c-15.805-5.308-33.021-6.772-49.574-7.297c-18.086-0.57-36.45,0.699-54.137,4.623c-9.089,2.021-22.805,5.119-28.009,13.855
		c-0.941,1.583-1.283,3.671-1.19,5.8h0.741c0-0.004-0.007-0.008-0.007-0.015c0.221-0.599,0.527-1.166,0.855-1.711
		c0.919-1.547,2.395-2.755,3.792-3.85c4.47-3.504,10.216-5.45,15.555-7.144c16.154-5.114,33.591-6.483,50.43-6.868
		c17.901-0.403,36.065,0.973,53.51,5.086C313.416,286.181,327.14,289.438,331.431,298.274z M291.324,313.537
		c-2.231,1.75-5.104,2.724-7.778,3.572c-8.069,2.556-16.796,3.243-25.215,3.433c-8.947,0.203-18.029-0.485-26.748-2.542
		c-4.299-1.012-11.157-2.642-13.303-7.062c-0.028-0.061-0.036-0.128-0.064-0.188h-0.235c-0.007,0.393-0.014,0.802,0,1.141
		c0.235,4.288,6.273,6.238,9.582,7.35c7.898,2.656,16.51,3.387,24.787,3.646c9.046,0.289,18.221-0.346,27.068-2.31
		c4.549-1.009,11.406-2.56,14.009-6.93c0.464-0.791,0.635-1.835,0.592-2.897h-0.371c0,0.004,0.008,0.004,0.008,0.007
		c-0.107,0.3-0.271,0.585-0.428,0.855C292.764,312.386,292.029,312.988,291.324,313.537z"></path></g></svg>