<?xml version="1.0" encoding="iso-8859-1"?>
<!DOCTYPE svg PUBLIC "-//W3C//DTD SVG 1.1//EN" "http://www.w3.org/Graphics/SVG/1.1/DTD/svg11.dtd">
<svg  version="1.1" xmlns="http://www.w3.org/2000/svg" xmlns:xlink="http://www.w3.org/1999/xlink" x="0px" y="0px" width="512px"
	 height="512px" viewBox="0 0 512 512" enable-background="new 0 0 512 512" xml:space="preserve"><g id="5151e0c8492e5103c096af88a5234e4a"><path display="inline" fill-rule="evenodd" clip-rule="evenodd" d="M489.946,384.135c-6.089-46.572-115.757-68.32-244.963-48.58
		c-129.206,19.744-229.01,73.506-222.93,120.078c6.088,46.57,115.765,68.324,244.971,48.578
		C396.221,484.471,496.034,430.709,489.946,384.135z M376.377,441.693c-43.224,10.811-81.558,6.438-85.624-9.795
		c-4.059-16.217,27.688-38.158,70.911-48.982c43.215-10.82,81.549-6.438,85.615,9.785
		C451.338,408.928,419.601,430.863,376.377,441.693z M244.559,293.523c111.533,15.172,207.062-4.918,213.383-44.874
		c6.32-39.947-78.971-84.63-190.503-99.8c-111.523-15.17-207.062,4.919-213.382,44.871
		C47.736,233.67,133.027,278.354,244.559,293.523z M282.152,208.1c3.885-12.38,33.784-14.035,66.778-3.684
		c32.985,10.351,56.581,28.785,52.696,41.169c-3.884,12.384-33.775,14.044-66.777,3.692
		C301.864,238.923,278.269,220.492,282.152,208.1z M261.119,124.505c70.521-6.196,125.896-38.749,123.691-72.711
		c-2.204-33.958-61.155-56.46-131.668-50.269c-70.521,6.192-125.896,38.75-123.691,72.708
		C131.647,108.191,190.598,130.697,261.119,124.505z M240.043,36.473c1.614-7.972,25.542-9.86,53.438-4.217
		c27.903,5.644,49.212,16.68,47.599,24.652c-1.605,7.968-25.533,9.86-53.438,4.217C259.747,55.482,238.43,44.445,240.043,36.473z"></path></g></svg>