<?xml version="1.0" encoding="iso-8859-1"?>
<!DOCTYPE svg PUBLIC "-//W3C//DTD SVG 1.1//EN" "http://www.w3.org/Graphics/SVG/1.1/DTD/svg11.dtd">
<svg  version="1.1" xmlns="http://www.w3.org/2000/svg" xmlns:xlink="http://www.w3.org/1999/xlink" x="0px" y="0px" width="512px"
	 height="512px" viewBox="0 0 512 512" enable-background="new 0 0 512 512" xml:space="preserve"><g id="5151e0c8492e5103c096af88a523aab6"><path display="inline" d="M103.663,332.388L0.5,348.461c0,0,4.691-99.96,48.887-176.452c19.072-32.999,49.875-32.269,49.875-32.269
		s16.631-0.276,24.942,8.674c18.627,20.061,13.22,33.385,45.593,77.145c24.979,33.766,99.624,94.747,99.624,94.747
		s-46.046,5.911-64.538-1.593c-15.243-6.184-78.483-66.153-78.483-66.153s-19.018,24.96-22.002,33.739
		C100.605,297.474,103.663,332.388,103.663,332.388z M382.191,373.008c27.138,0,49.141-22.002,49.141-49.136
		c0-27.138-22.003-49.141-49.141-49.141s-49.141,22.003-49.141,49.141C333.051,351.006,355.054,373.008,382.191,373.008z
		 M511.448,378.315c-47.897,42.046-106.447,38.321-106.447,38.321c-54.647-27.147-66.715-70.775-100.059-76.27
		C221.278,326.59,0.5,365.137,0.5,365.137l1.071,77.05l309.065,0.245l-18.65-16.041l41.546,16.06h0.427l66.788,25.282
		c0,0,76.287-19.693,105.712-50.238C512.365,411.365,511.448,378.315,511.448,378.315z M78.584,94.914
		c5.317-6.832,22.075,15.03,22.075,15.03l0.016-0.113c6.766,19.047,24.899,32.713,46.267,32.713
		c27.129,0,49.131-22.002,49.131-49.136c0-27.138-22.002-49.141-49.131-49.141c-16.776,0-31.573,8.422-40.439,21.254l0.063-0.481
		c0,0-11.705-19.23-30.967-1.551C54.304,83.042,37.274,86.912,37.274,86.912C59.34,100.268,66.889,109.944,78.584,94.914z"></path></g></svg>