<?xml version="1.0" encoding="iso-8859-1"?>
<!DOCTYPE svg PUBLIC "-//W3C//DTD SVG 1.1//EN" "http://www.w3.org/Graphics/SVG/1.1/DTD/svg11.dtd">
<svg  version="1.1" xmlns="http://www.w3.org/2000/svg" xmlns:xlink="http://www.w3.org/1999/xlink" x="0px" y="0px" width="512px"
	 height="512px" viewBox="0 0 512 512" enable-background="new 0 0 512 512" xml:space="preserve"><g id="5151e0c8492e5103c096af88a52475e8"><path display="inline" fill-rule="evenodd" clip-rule="evenodd" d="M427.585,353.913c15.998-16.011,25.321-30.715,25.321-30.715
		c31.081-52.243,42.492-115.478,35.156-181.203c-12.8-1.427-25.509-2.146-38.059-2.146c-34.366,0-67.543,5.419-98.267,16.335
		C333.356,109.172,300.887,67,258.029,32.755c-43.24,34.549-75.893,77.174-94.19,124.688
		c-31.713-11.785-66.137-17.599-101.843-17.595c-12.55,0-25.259,0.72-38.059,2.146c-7.336,65.726,4.075,128.96,35.156,181.203
		c0,0,9.323,14.704,25.321,30.715C33.993,366.65,0.5,404.647,0.5,404.647s14.596-12.052,45.544,3.854
		c33.951,17.445,54.626,57.604,125.255,69.734C216.211,485.95,256,446.894,256,446.894s-29.218,19.512-66.046,10.218
		c-36.295-9.17-82.272-41.868-112.646-57.13c-22.148-11.12-34.94-7.036-34.94-7.036s2.969-10.192,37.394,2.902
		c28.61,10.875,86.264,44.792,114.867,50.081c33.684,6.226,60.764-13.615,60.764-13.615s-16.014-26.651-46.688-49.698
		c10.309-5.631,20.872-13.527,31.601-24.257c6.104-6.108,16.06-18.646,15.694-18.147c4.392,5.984,9.59,12.039,15.694,18.147
		c10.733,10.729,21.296,18.631,31.608,24.261c-30.673,23.047-46.688,49.694-46.688,49.694s27.072,19.841,60.765,13.615
		c28.594-5.289,86.248-39.206,114.867-50.081c34.424-13.095,37.385-2.902,37.385-2.902s-12.792-4.084-34.932,7.036
		c-30.382,15.262-76.358,47.96-112.654,57.13C285.227,466.405,256,446.894,256,446.894s39.797,39.057,84.709,31.343
		c70.629-12.13,91.305-52.289,125.255-69.734c30.948-15.906,45.536-3.854,45.536-3.854S478.007,366.646,427.585,353.913z
		 M258.029,56.679c35.339,30.914,61.405,67.077,76.684,106.237c-9.573,4.18-18.88,8.903-27.854,14.239
		c0,0-29.899,18.93-50.858,49.229c-20.959-30.299-50.859-49.229-50.859-49.229c-7.876-4.687-16.002-8.929-24.352-12.726
		C195.984,124.691,222.233,87.988,258.029,56.679z M256,298.352c-1.655,7.231-4.558,14.454-8.708,21.641
		c-0.574,1.002-1.214,2.004-1.838,3.007c-2.961,4.728-6.438,9.436-10.471,14.126c-2.362,2.757-4.916,5.51-7.66,8.251
		c-12.051,12.051-24.269,20.468-36.524,25.346c-16.53-9.561-36.121-17.208-58.647-19.981c-8.542-1.052-16.809-1.147-24.785-0.553
		c-19.096-16.331-31.434-34.786-32.653-36.653c-26.09-43.98-37.693-97.168-33.858-154.618c7.103-0.47,14.181-0.707,21.142-0.707
		h0.008c33.934,0,66.404,5.685,95.796,16.626c5.814,2.166,11.494,4.554,17.059,7.123c7.086,3.281,13.973,6.87,20.609,10.804
		c2.57,1.685,32.803,21.92,50.152,51.358c4.649,7.896,8.367,16.455,10.38,25.5c0.557,2.482,1.006,4.998,1.281,7.552
		C258.055,284.229,257.613,291.294,256,298.352z M284.677,345.376c-2.578-2.583-4.981-5.174-7.235-7.772
		c-4.209-4.845-7.835-9.719-10.896-14.604c-0.582-0.928,0.366-2.891,1.389-2.961c12.801-28.079,8.925-54.045-1.555-75.918
		c17.391-29.505,47.715-49.761,50.144-51.35c7.751-4.6,15.844-8.729,24.219-12.435c5.572-2.466,11.278-4.728,17.101-6.79
		c28.427-10.081,59.616-15.337,92.161-15.337c6.97,0,14.039,0.237,21.142,0.707c3.834,57.45-7.76,110.629-33.851,154.609
		c-1.302,1.979-13.627,20.381-32.661,36.657c-7.976-0.59-16.238-0.494-24.776,0.558c-22.531,2.773-42.121,10.421-58.651,19.986
		C308.95,365.848,296.732,357.432,284.677,345.376z"></path></g></svg>